<svg xmlns="http://www.w3.org/2000/svg" viewBox="0 0 512 512">
  <defs>
    <linearGradient id="bg-grad" x1="0%" y1="0%" x2="100%" y2="100%">
      <stop offset="0%" stop-color="#4F46E5"/>
      <stop offset="100%" stop-color="#9333EA"/>
    </linearGradient>
    <linearGradient id="text-grad" x1="0%" y1="0%" x2="100%" y2="100%">
      <stop offset="0%" stop-color="#FFFFFF"/>
      <stop offset="100%" stop-color="#E2E8F0"/>
    </linearGradient>
    <filter id="shadow" x="-20%" y="-20%" width="140%" height="140%">
      <feDropShadow dx="0" dy="8" stdDeviation="12" flood-color="#000000" flood-opacity="0.3"/>
    </filter>
  </defs>
  <rect width="512" height="512" rx="112" fill="url(#bg-grad)"/>
  <g filter="url(#shadow)" transform="translate(-79, 0)">
    <!-- Letter D -->
    <path fill-rule="evenodd" d="M 150 150 L 220 150 C 280 150 320 190 320 256 C 320 322 280 362 220 362 L 150 362 Z M 200 200 L 200 312 L 220 312 C 250 312 270 290 270 256 C 270 222 250 200 220 200 Z" fill="url(#text-grad)"/>
    <!-- Letter X -->
    <path fill-rule="evenodd" d="M 340 150 L 390 150 L 430 220 L 470 150 L 520 150 L 460 256 L 520 362 L 470 362 L 430 292 L 390 362 L 340 362 L 400 256 Z" fill="url(#text-grad)"/>
  </g>
</svg>